<svg width="47" height="47" viewBox="0 0 47 47" fill="none" xmlns="http://www.w3.org/2000/svg">
<path d="M0 16C0 7.16344 7.16344 0 16 0H31C39.8366 0 47 7.16344 47 16V31C47 39.8366 39.8366 47 31 47H16C7.16344 47 0 39.8366 0 31V16Z" fill="#0E47A1"/>
<path d="M18.5819 16C32.0502 16 43.7893 20.5258 44.8019 26.111C45.1992 28.3077 43.8828 30.3408 41.3122 32C42.2158 31.0497 42.6754 29.9591 42.6053 28.7439C42.317 23.4781 33.3355 18.1499 19.8906 16.5842C17.6393 16.3194 15.4816 16.2025 13.4485 16.2259C15.0921 16.0779 16.8058 16 18.5819 16Z" fill="white"/>
<path d="M30.687 22.0292H31.8477C33.577 22.0292 35.1973 22.7303 35.688 25.519L35.9139 26.8043C36.3268 29.1568 35.135 30.1305 33.3433 30.1305H33.0317C31.6763 30.1305 31.0687 29.7332 30.8351 28.409L30.8117 28.2843C30.7727 28.0896 30.9052 27.926 31.1077 27.926H31.5673C32.7202 27.926 32.8604 27.3651 32.7046 26.4771L32.5722 25.6592C32.3852 24.6154 31.8944 24.1792 30.9207 24.1792H30.539C29.799 24.1792 29.3083 24.8257 29.4874 25.8695L30.0405 29.001C30.2041 29.9435 29.7834 30.1538 28.8798 30.1538H27.54C27.3453 30.1538 27.1661 30.0058 27.1194 29.8189L26.2314 24.8101C26.1535 24.3583 26.0132 24.1792 25.5225 24.1792C25.2421 24.1792 25.0551 24.0545 25.0162 23.8598C24.9928 23.7196 24.9772 23.6573 24.9772 23.6573C24.7981 22.629 25.0785 22.037 26.1924 22.037H26.987C27.9762 22.0292 28.576 22.0292 28.8565 22.9718C28.9655 23.3301 29.2771 23.3924 29.3005 23.0263C29.4018 22.0292 29.9081 22.0292 30.687 22.0292Z" fill="white"/>
<path d="M18.0911 22.0292C17.2888 22.0292 17.2888 22.5667 17.616 23.0029C17.6689 23.0724 17.8288 23.284 17.9957 23.5049C18.2217 23.804 18.4606 24.1202 18.465 24.1246C18.4884 24.1636 18.5352 24.187 18.5741 24.187H20.8954C21.098 24.187 21.2615 24.2571 21.355 24.3817C21.4485 24.5063 21.4563 24.6699 21.3862 24.8491C21.3819 24.8662 21.243 25.2115 21.1191 25.5198L21.1185 25.5212L21.1184 25.5216C21.0174 25.7725 20.9266 25.9985 20.9266 26.0019C20.911 26.0409 20.9188 26.0798 20.95 26.1188C20.95 26.1188 21.799 27.2327 21.8224 27.2717C21.9626 27.4508 22.0016 27.6144 21.9548 27.739C21.9003 27.8637 21.7601 27.9338 21.5575 27.9338H19.6647C19.6179 27.9338 19.5868 27.9572 19.5712 27.9961C19.5712 27.9961 19.1583 29.0321 19.096 29.1957C18.9246 29.6319 19.1194 30.1694 19.9217 30.1694H21.9704C24.2761 30.1694 25.3745 28.8919 24.9149 26.2746L24.8526 25.9085C24.3151 22.8471 22.3521 22.0292 20.5215 22.0292H18.0911Z" fill="white"/>
<path d="M8.41636 23.6495C8.2372 22.6212 8.50984 22.0292 9.63156 22.0292H13.1447C14.8195 22.0292 15.9334 22.8783 16.4164 24.0857C16.4319 24.1324 16.4086 24.1792 16.354 24.1792H14.8273C14.6247 24.1792 14.4845 24.2493 14.43 24.3739C14.3755 24.4985 14.3755 24.6076 14.5157 24.7868C14.5337 24.8093 14.7893 25.1477 15.0301 25.4665C15.2052 25.6984 15.3725 25.9199 15.4349 26.0019C15.4504 26.0175 15.4582 26.0409 15.4582 26.0565C15.4582 26.0721 15.4582 26.0954 15.4504 26.111C15.3959 26.2434 15.2245 26.6719 15.1077 26.9757C15.0767 27.0533 15.0495 27.1232 15.029 27.1757L15.0288 27.1762C15.0084 27.2288 14.9947 27.2639 14.9909 27.2717C14.9207 27.4508 14.9285 27.6144 15.022 27.739C15.1155 27.8637 15.2791 27.9338 15.4816 27.9338H16.8526C16.8915 27.9338 16.9383 27.9572 16.9616 27.9961C16.9616 27.9961 17.8263 29.1334 17.873 29.1957C18.2002 29.6475 18.2002 30.1694 17.3979 30.1694H11.2674C10.1535 30.1694 9.50692 29.8033 9.30439 28.6349L9.24207 28.2999C9.20312 28.0974 9.33555 27.9416 9.53808 27.9416H11.8049C12.9422 27.9416 12.9655 27.3106 12.8175 26.4537L12.6695 25.5969C12.5137 24.7244 12.0853 24.1792 10.9714 24.1792H8.86817C8.68121 24.1792 8.50205 24.0389 8.44752 23.852L8.41636 23.6495Z" fill="white"/>
<path d="M4.39689 22.0292C3.27518 22.0292 2.99475 22.6212 3.1817 23.6495L3.21286 23.852C3.26739 24.0389 3.44655 24.1792 3.6335 24.1792H3.97625C4.42805 24.1792 4.51374 24.3505 4.58384 24.7556L4.78637 25.9007L4.81753 26.1266C4.98112 27.0691 5.50302 27.4197 6.46115 27.4197H7.60624C7.80098 27.4197 7.94119 27.2639 7.90224 27.0613L7.7075 25.8695L7.35697 23.8987C7.15444 22.7303 6.55463 22.0292 5.23039 22.0292H4.39689Z" fill="white"/>
</svg>
